<svg width="12" height="12" viewBox="0 0 12 12" fill="none" xmlns="http://www.w3.org/2000/svg">
<g clip-path="url(#clip0_53_1501)">
<path d="M6 4.14288V5.4286" stroke="#AF1414" stroke-linecap="round" stroke-linejoin="round"/>
<path d="M6.00005 6.92857C6.1184 6.92857 6.21434 6.83263 6.21434 6.71429C6.21434 6.59594 6.1184 6.5 6.00005 6.5C5.88171 6.5 5.78577 6.59594 5.78577 6.71429C5.78577 6.83263 5.88171 6.92857 6.00005 6.92857Z" stroke="#AF1414" stroke-width="0.71" stroke-linecap="round" stroke-linejoin="round"/>
<path d="M6.38142 2.45002C6.34546 2.37982 6.29082 2.3209 6.22352 2.27976C6.15622 2.23863 6.07887 2.21686 5.99999 2.21686C5.92112 2.21686 5.84377 2.23863 5.77647 2.27976C5.70917 2.3209 5.65453 2.37982 5.61857 2.45002L3.26142 7.1643C3.22855 7.22954 3.21289 7.30211 3.21595 7.3751C3.21901 7.44809 3.24068 7.51909 3.27889 7.58135C3.31711 7.64362 3.37061 7.69508 3.43431 7.73085C3.49801 7.76662 3.56979 7.78551 3.64285 7.78573H8.35714C8.43019 7.78551 8.50198 7.76662 8.56568 7.73085C8.62938 7.69508 8.68288 7.64362 8.7211 7.58135C8.75931 7.51909 8.78098 7.44809 8.78404 7.3751C8.78709 7.30211 8.77144 7.22954 8.73857 7.1643L6.38142 2.45002Z" stroke="#AF1414" stroke-width="0.71" stroke-linecap="round" stroke-linejoin="round"/>
</g>
<defs>
<clipPath id="clip0_53_1501">
<rect width="8" height="8" fill="white" transform="translate(2 1)"/>
</clipPath>
</defs>
</svg>
